<svg enable-background="new 0 0 512 512" height="512" viewBox="0 0 512 512" width="512" xmlns="http://www.w3.org/2000/svg"><path d="m482.007 132.576c-3.451 13.652-10.421 25.263-24.859 30.405-7.078 2.52-11.652-.073-18.871-2.154 7.086.674 11.161 1.763 17.507-1.378 11.847-5.858 20.576-15.43 26.223-26.873zm28.847 89.743c-1.684 16.547-6.101 32.622-13.968 46.247-7.045 12.218-16.863 22.489-29.941 29.492-8.887 4.725-19.213 7.461-29.888 8.579-11.082 1.152-22.522.536-33.197-1.276-.499 1.654-1.015 3.335-1.506 4.978-.624 2.066-1.256 4.146-1.88 6.2-2.179 7.161-7.385 13.615-13.872 18.397-6.695 4.94-14.858 8.167-22.469 8.509-7.27.353-12.888-1.36-17.869-4.301-4.824-2.836-8.949-6.782-13.449-11.128l-5.896-5.672c-1.322-1.289-2.645-2.574-3.983-3.851-.142.927-.274 1.813-.416 2.623 2.079 4.205 3.551 8.147 5.048 12.189v.012c.944 2.524 1.913 5.119 3.082 7.931 1.742 4.158 3.057 7.627 3.972 11.224.914 3.631 1.418 7.323 1.53 11.848.107 3.855.212 7.702.319 11.549.096 3.63.188 7.261.304 10.891 1.605 2.911 2.554 4.907 3.027 7.111.532 2.35.479 4.641.208 8.375-.59 8.393-3.364 13.07-8.025 15.724-4.375 2.479-10.168 2.849-17.333 2.815-1.09-.017-2.856-.017-4.999-.017-6.952 0-17.706.017-20.996-.216-4.42-.32-8.097-.657-11.182-1.397-2.379-.565-4.334-1.39-5.968-2.587-2.375 1.917-4.462 3.651-6.559 5.377-6.173 5.086-12.439 10.268-14.963 11.947-.967 1.489-1.842 2.99-2.645 4.384-2.591 4.541-4.508 7.9-10.617 11.215-11.998 6.479-21.283 5.914-29.428.915-7.76-4.762-14.17-13.511-20.872-23.849-3.188-4.907-8.278-12.991-10.756-20.918-2.74-8.774-2.36-17.308 6.381-21.799.416-.216.838-.433 1.233-.641.911-.474 1.77-.906 2.628-1.348-3.313.175-6.643.309-9.956.267-6.504-.042-13.039-.49-19.703-1.348.108.795.2 1.431.251 1.843.51 4.42.863 7.314.443 10.213-.422 2.99-1.609 5.651-4.136 9.419-.168.25-.734 1.069-1.218 1.755-2.343 3.452-3.728 5.506-6.951 12.638.318 3.515.422 6.342.189 9.157-.256 3.032-.894 6.117-1.973 10.151-2.751 10.172-12.979 12.517-24.311 11.806-10.398-.648-21.782-3.921-28.359-5.709-1.428-.379-2.586-.679-3.711-.974-5.55-1.447-11.53-3.011-16.563-5.298-10.078-4.6-16.537-11.818-10.247-25.638 1.013-2.191 1.896-4.42 2.699-6.666.308-.798.51-1.563.771-2.361-5.131.798-10.582-.175-15.89-2.192-9.286-3.53-18.16-10.275-23.589-15.706-4.341-4.351-7.718-9.032-10.245-13.84-2.734-5.207-4.483-10.604-5.373-15.919-1.466-8.699-.443-9.689 4.699-14.626.767-.752 1.626-1.571 1.836-1.775 2.541-2.512 5.065-5.031 7.6-7.531 2.705-2.682 5.441-5.385 8.136-8.08 1.239-3.352 2.472-6.695 3.715-10.076.799-2.158 1.591-4.333 2.381-6.482-.38-2.005-.724-4.021-1.013-6.084-.334-2.408-.597-4.62-.771-6.616-.782-9.194-1.044-17.101-.771-24.261.206-5.461.715-10.484 1.553-15.291-4.246.946-8.571.873-12.49-.37-4.843-1.564-9.07-4.907-11.688-10.403-.981-2.017-1.753-4.057-2.483-6.36-.642-2.032-1.235-4.3-1.871-6.87-3.473-3.578-5.441-7.333-6.094-11.178-.776-4.413.118-8.814 2.094-13.031 1.892-4.053 4.797-7.908 8.159-11.405 9.055-9.405 21.926-16.474 27.916-17.514l4.493-.786-1.495 4.304c-.777 2.179-1.686 4.462-2.565 6.709-.248.653-.499 1.312-.771 2.021 2.755 2.179 4.406 5.202 5.177 8.643 1.204 5.321.426 11.451-.601 16.038l-1.225 5.491-3.48-4.402c-.842-1.038-1.543-2.119-2.217-3.167-.622-.957-1.212-1.857-1.815-2.597-.479 7.143-1.348 14.306-6.438 19.189.144.614.212.942.314 1.013.081.042.946-.43 3.034-1.243 3.584-1.368 6.772-3.651 9.771-6.335 3.083-2.776 5.903-5.945 8.756-9.081 3.225-6.263 6.916-12.187 11.226-17.821 4.381-5.749 9.395-11.184 15.183-16.312 14.166-12.546 27.947-20.901 43.59-26.954 15.312-5.917 32.382-9.646 53.352-13.008 2.639-2.736 5.317-5.446 8.063-8.126 2.946-2.828 5.99-5.656 9.178-8.483 4.479-3.938 8.222-6.346 11.945-7.836 3.362-1.368 6.679-1.903 10.407-2.175 6.402-8.535 12.239-15.858 19.106-22.202 7.19-6.649 15.447-12.183 26.564-16.857 23.025-9.712 42.546-14.771 61.01-13.611 18.597 1.163 35.996 8.608 54.643 23.993 3.519 2.907 7.103 6.047 10.675 9.184 7.814 6.87 15.482 13.597 24.49 19.231 3.393 2.102 6.263 3.928 9.099 6.078 2.803 2.14 5.39 4.531 8.084 7.712 3.256 3.898 6.229 7.791 8.837 11.96 2.191 3.483 4.104 7.18 5.793 11.236 3.817-1.539 7.859-3.235 11.095-5.97 2.795-2.397 5.123-5.801 7.444-9.194 2.079-3.055 4.166-6.082 6.645-8.577.808-.838 1.73-1.522 2.729-2.025 3.801-2.007 8.612-1.676 13.166-.104 4.3 1.472 8.45 4.088 11.27 6.87 1.297 1.267 2.337 2.624 3.019 3.94 5.664 10.829 9.739 25.885 12.201 41.381 2.744 17.403 3.492 35.435 2.157 48.696zm-79.306-71.277c-.823.021-1.63.042-2.412.071 1.173 1.152 2.092 2.52 2.766 4.032.332-.318.711-.626 1.118-.904-.483-1.08-.973-2.151-1.472-3.199zm-399.131 48.375c2.094-.235 3.396.865 5.016 2.478-.293-3.865-1.025-6.734-3.739-8.329-.195.628-.349 1.26-.53 1.898-.35 1.243-.566 2.565-.747 3.953zm8.321 42.175c.196-.695.401-1.379.626-2.078 1.316-4.154 2.726-8.186 4.238-12.095-3.163 2.859-6.72 5.285-11.035 7.013-11.158 4.464-10.931.607-15.734-9.08 10.211-8.155 5.485-18.171 8.735-29.428.757-2.587 1.853-5.115 3.404-8.448-10.694 6.438-30.347 24.419-17.214 38.046 1.424 5.142 2.524 9.143 4.479 13.209 4.02 8.398 14.521 6.244 22.501 2.861zm29.565 136.231c-11.416-17.278-21.729-37.847-27.781-58.764-1.117 2.998-2.237 5.972-3.348 8.966-5.117 5.164-10.232 10.346-15.349 15.531-3.791 3.847-4.531 3.98-3.764 9.415 1.034 7.461 5.436 15.391 12.012 22.103 6.015 6.143 26.779 22.165 34.944 11.245 1.738-2.329 2.556-5.207 3.286-8.176 0-.116 0-.204 0-.32zm250.894-32.707c-1.805-4.291-2.803-8.316-4.059-12.38-2.716 9.715-6.38 18.859-9.706 29.372-3.152 9.947-19.346 38.791-28.86 45.802 1.854 1.381 5.256 1.913 11.319 2.438 4.292.365 21.188.465 25.446.527 9.348.171 12.896-.54 13.844-11.178.457-5.219.041-6.188-2.563-10.758-.224-8.143-.448-16.302-.673-24.444-.236-7.714-1.72-12.176-4.748-19.379zm167.98-204.903c-2.175-5.267-10.871-13.16-16.394-7.795-5.572 5.429-9.764 13.07-15.835 17.873-8.275 6.504-22.506 4.267-19.928 18.09 1.884 10.068 2.42 21.337.266 30.717-2.054 9.009-4.191 21.812-8.891 27.843 1.389-5.104 3.726-18.449 4.379-27.452.354-4.926-.199-10.871-1.119-16.854-1.039.021-2.074.045-3.135.077-3.793.077-9.973 5.516-11.636 8.91-4.641 9.452-4.957 18.235-10.155 27.232 4.184-10.057 1.83-19.127 5.651-29.914 1.344-3.805 4.758-7.086 8.704-9.083-2.196-.328-4.392.632-7.636 1.389-13.881 3.302-13.257 14.212-21.794 24.631 8.229-15.098 4.029-25.109 21.873-29.182 5.872-1.331 10.159-1.865 14.019 1.22.083 0 .167 0 .241-.017 1.015-.077 2.021-.16 3.044-.231-.507-2.771-1.048-5.501-1.588-8.074-8.159-1.069-15.678-.842-24.045.422 1.809-.786 3.568-1.512 5.273-2.129 2.661-.977 5.248-1.749 7.821-2.189.254-.509.403-1.071.475-1.676.266-2.819-1.821-5.337-4.637-5.616-2.828-.268-5.231 1.811-5.506 4.639-.1 1.11.291 2.437.915 3.537-.138-.248-.271-.493-.392-.755l-.012-.017c-1.077-2.077-1.568-4.473-1.348-6.957.195-1.875.781-3.604 1.676-5.136-.274.066-.549.154-.823.251-1.983.796-6.213.541-8.126-.114 3.751-.622 9.34-2.616 12.95-4.375.1-.042.195-.083.274-.133 2.254-1.389 4.956-2.073 7.776-1.811 1.431.143 2.777.513 4.009 1.1 1.68.495 3.56 1.163 5.821 1.976-3.435-7.178-7.314-13.667-11.984-20.177-4.416-6.145-8.126-8.267-14.655-12.124-1.422-.844-2.811-1.687-4.183-2.572-4.824-.884-10.205-1.753-14.847-.869 3.826-1.505 6.704-2.112 10.056-2.389-9.24-6.625-17.212-14.06-26.332-21.73-35.193-29.592-63.671-27.49-108.487-8.032-18.187 7.918-24.697 15.879-35.886 30.204.098 0 .216-.01.35-.01 11.379-.287 22.693-.678 34.391-1.778-12.099 2.817-23.668 5.069-35.547 6.868-13.108 2-17.133 1.667-27.02 11.289-18.219 17.724-33.48 37.757-50.156 55.732-9.65 10.417-14.449 20.857-20.115 32.724-5.62 11.806-4.842 16.278 2.699 26.481 7.704 10.444 12.361 15.168 15.627 24.441 8.519-13.149 18.782-24.051 29.603-37.121-8.835 14.16-16.892 27.54-24.194 41.937-4.549 8.958-6.783 13.523-6.637 23.43 8.539 9.839 13.894 15.087 21.822 17.266 8.54 2.346 16.588 1.955 24.307-2.046 19.204-9.938 37.458-22.905 58.772-24.539 11.003-19.611 7.912-44.272 3.963-66.578-3.271-18.537-2.441-34.884 1.975-53.477 1.106 18.058 2.551 34.826 6.133 52.53 5.219 25.935 6.317 48.324-4.59 75.122-23.556.565-42.889 14.367-63.781 25.051-9.394 4.808-18.181 5.29-28.692 2.79-10.716-2.549-18.932-10.816-29.958-22.889 1.081-9.128 2.272-14.8 5.522-21.503-3.932-11.844-8.808-17.291-17.821-29.405-10.453-14.043-10.633-20.127-2.726-36.119 5.699-11.594 11.041-22.29 20.055-32.867 8.874-10.479 17.035-20.233 25.284-29.453-34.283 5.204-56.167 13.471-79.582 34.008-17.36 15.241-28.188 34.165-35.913 56.018-4.895 13.79-6.267 27.683-3.959 50.226 2.967 29.056 18.397 61.838 35.013 85.749-2.027 14.888-4.655 26.104-8.81 36.745-4.71 12.068 14.033 15.761 23.088 18.239 7.353 2.017 35.279 9.681 38.04-.216 1.645-5.931 1.645-10.072 1.233-16.327 4.978-9.926 6.49-11.253 10.043-17.124 3.801-6.284 4.119-8.792 4.15-16.173.015-9.519-.231-26.519.17-32.665 1.289 5.497 2.822 13.149 4.092 20.493 19.849 3.551 39.548 3.293 59.384-.757.252-1.385.711-2.895 1.225-4.749 1.326-4.642 3.99-9.282 5.331-13.932-.375 4.579-.724 9.145-1.096 13.711-.37 4.712-.385 8.513.195 13.212.32 2.586.649 5.165.957 7.747-1.435-2.366-3.67-4.637-4.976-7.016-8.835 5.813-13.694 9.104-22.369 13.682-9.164 4.849 1.347 22.198 5.131 28.229 8.319 13.203 18.254 28.855 33.707 20.68 5.069-2.674 8.036-8.878 11.419-13.345 4.535-2.669 28.612-22.967 32.438-25.18 5.398-3.098 24.848-34.965 27.313-42.912 5.439-17.599 11.827-30.993 13.632-49.353-12.384-5.207-18.405-10.991-27.28-21.425 12.476 9.248 23.246 14.192 36.695 18.451 4.902 4.32 9.848 8.688 14.991 13.266 7.456 6.641 14.302 13.411 25.113 13.606 11.694.2 24.918-8.741 28.32-19.828 1.306-4.262 2.623-8.537 3.925-12.804-2.312-.558-4.582-1.181-6.77-1.851-2.425 5.83-2.233 8.089-3.377 12.372-1.971 7.327-12.056 12.413-22.622 9.863-3.756-.906-5.964-1.43-7.303-2.395 1.057 2.886 3.127 5.344 6.97 6.046 4.259.79 7.402 1.132 13.59-.274-7.651 3.968-10.113 4.138-15.536 2.928-14.268-3.169-9.244-20.352-6.134-30.86 1.954-6.616 1.293-13.636-.188-20.265 5.406 3.418 9.689 6.429 15.84 8.509 28.814 9.706 63.006 19.599 92.008 3.397 22.747-12.696 35.219-40.854 38.021-66.647 2.497-22.994-1.811-58.863-11.234-81.663zm-147.087 138.45c-.566 3.581-1.335 8.001-1.901 11.582 1.522-4.042 3.331-8.721 5.091-12.58 1.867-4.079 2.91-4.449 6.849-6.604 2.812-1.53 7.901-3.626 10.7-5.14-2.882.482-8.051 1.534-10.921 2.021-7.698 1.302-8.613 3.144-9.818 10.721zm-131.541-137.709c-8.926 8.843-17.601 39.161-20.373 51.285 4.356-10.089 15.299-38.256 23.679-45.428 2.314-1.986 3.944-3.204 5.668-4.09-6 10.08-5.564 12.577-3.456 26.062 1.788-13.709 6.545-19.017 14.315-29.232 8.529-2.156 16.53-4.706 25.271-8.12-9.872 1.121-19.713 2.133-29.603 3.065-8.281.781-9.618.663-15.501 6.458zm148.258 33.623c-1.917-4.027-5.285-6.911-9.182-8.332 3.547-1.913 7.011-3.886 9.73-6.35-7.951 3.683-17.199 2.778-24.003 7.394-6.03 4.042-14.317 16.909-20.418 22.348 4.416-1.713 8.674-4.681 12.592-7.795.029 2.314.549 4.678 1.589 6.91 1.089 2.274 2.669 4.146 4.508 5.626-.524-.524-.978-1.121-1.314-1.815-1.63-3.41-.175-7.512 3.235-9.126 3.418-1.646 7.539-.187 9.169 3.219.146.329.287.657.379.986-3.269 2.439-6.263 5.288-8.767 8.587-2.187 2.879-4.017 6.129-5.322 9.729 11.619-13.779 28.474-24.203 44.321-28.64-4.433-.052-9.681.78-15.021 2.518-.191-1.763-.677-3.547-1.496-5.259zm-56.756-12.419c2.674-11.835 7.428-23.242 25.816-32.075-24.369 6.103-28.943 16.337-25.816 32.075z"/></svg>